<svg xmlns="http://www.w3.org/2000/svg" role="img" viewBox="0 0 24 24" 
     class="e-91000-logo e-91000-baseline" aria-label="Spotify" aria-hidden="false" 
     height="32" data-encore-id="logoSpotify" 
     style="--encore-logo-fill-color: var(--decorative-base);">
  <title>Spotify</title>
  <path d="M12 0C5.373 0 0 5.373 0 12s5.373 12 
           12 12 12-5.373 12-12S18.627 0 12 0zm5.407 17.437a.749.749 0 0 1-1.03.268c-2.829-1.735-6.393-2.128-10.598-1.165a.75.75 0 0 1-.328-1.463c4.642-1.041 8.657-.592 11.922 1.34a.75.75 0 0 1 .034 1.02zm1.467-3.252a.937.937 0 0 1-1.289.335c-3.245-1.991-8.198-2.571-12.048-1.405a.938.938 0 0 1-1.16-.633.938.938 0 0 1 .633-1.16c4.364-1.298 9.882-.656 13.577 1.609a.937.937 0 0 1 .287 1.254zm.143-3.37c-3.802-2.246-10.066-2.45-13.72-1.338a1.125 1.125 0 0 1-1.401-.744 1.125 1.125 0 0 1 .744-1.401c4.18-1.284 11.059-1.048 15.38 1.506a1.125 1.125 0 0 1-1.003 1.977z"/>
</svg>
